<svg width="160" height="37" fill="none" xmlns="http://www.w3.org/2000/svg">
<path d="M38.3921 19.0881H40.256C40.4009 21.057 41.9335 22.3212 44.0873 22.3212C46.034 22.3212 47.3387 21.3886 47.3387 19.8549C47.3387 18.3213 46.179 17.7617 43.4453 17.3057C40.4424 16.8083 38.7442 15.6892 38.7442 13.3265C38.7442 10.9638 40.7323 9.20215 43.6524 9.20215C46.7381 9.20215 48.7884 10.9431 48.9541 13.6166H47.0902C46.9038 11.9172 45.537 10.8394 43.6524 10.8394C41.7678 10.8394 40.5459 11.7099 40.5459 13.2229C40.5459 14.7358 41.685 15.2332 44.4601 15.6892C47.4216 16.1658 49.1405 17.3679 49.1405 19.6891C49.1405 22.1969 47.0488 23.9585 44.0666 23.9585C40.6702 23.9585 38.4956 22.0311 38.3921 19.0881Z" fill="white"></path>
<path d="M58.4737 13.2656H60.1719V23.8355H58.7015L58.4737 22.4262C57.8524 23.2138 56.8377 23.9599 55.1602 23.9599C52.9235 23.9599 51.0803 22.7164 51.0803 19.3589V13.2656H52.7785V19.2552C52.7785 21.307 53.7726 22.4055 55.4501 22.4055C57.314 22.4055 58.4737 21.0169 58.4737 18.7578V13.2656Z" fill="white"></path>
<path d="M72.577 18.5494C72.577 21.7826 70.4232 23.9587 67.5031 23.9587C65.722 23.9587 64.5209 23.2334 63.8789 22.2178V27.9794H62.1807V13.2645H63.6511L63.8789 14.964C64.583 13.9899 65.722 13.1401 67.5031 13.1401C70.4232 13.1401 72.577 15.109 72.577 18.5494ZM70.8374 18.5494C70.8374 16.2489 69.4291 14.6531 67.3374 14.6531C65.2457 14.6531 63.8582 16.2489 63.8582 18.508C63.8582 20.767 65.2664 22.4458 67.3374 22.4458C69.4084 22.4458 70.8374 20.8499 70.8374 18.5494Z" fill="white"></path>
<path d="M76.0586 18.9225V19.0261C76.1208 21.0365 77.3841 22.4458 79.3929 22.4458C80.884 22.4458 82.0438 21.6582 82.3958 20.2904H84.1147C83.7005 22.4043 81.9609 23.9587 79.5172 23.9587C76.3486 23.9587 74.2776 21.7826 74.2776 18.5494C74.2776 15.3163 76.3071 13.1401 79.2894 13.1401C82.2716 13.1401 84.2183 15.0261 84.3011 18.1557C84.3011 18.3215 84.2804 18.6738 84.2597 18.9225H76.0586ZM76.1622 17.4717H82.4787C82.313 15.6479 81.0704 14.6324 79.3101 14.6324C77.7568 14.6324 76.3279 15.7515 76.1622 17.4717Z" fill="white"></path>
<path d="M94.5367 13.2656V14.9236H93.1698C90.7053 14.9236 89.9805 16.8096 89.9805 18.4884V22.2811H93.0663V23.8355H85.9214V22.2811H88.2823V14.82H85.9214V13.2656H89.8977L89.9598 15.048C90.4361 14.219 91.3888 13.2656 93.3976 13.2656H94.5367Z" fill="white"></path>
<path d="M104.203 22.2804V23.8348H96.1057V22.2804H99.295V10.8815H96.1057V9.32715H100.993V22.2804H104.203Z" fill="white"></path>
<path d="M114.19 22.2798V23.8342H106.092V22.2798H109.282V14.8187H106.092V13.2643H110.98V22.2798H114.19ZM108.847 10.1141C108.847 9.38868 109.427 8.8291 110.151 8.8291C110.876 8.8291 111.435 9.38868 111.435 10.1141C111.435 10.8809 110.876 11.4198 110.151 11.4198C109.427 11.4198 108.847 10.8809 108.847 10.1141Z" fill="white"></path>
<path d="M125.366 17.7411V23.8344H123.668V17.8448C123.668 15.793 122.674 14.6945 120.934 14.6945C119.071 14.6945 117.869 16.0831 117.869 18.3422V23.8344H116.171V13.2645H117.642L117.869 14.6945C118.491 13.8862 119.547 13.1401 121.224 13.1401C123.502 13.1401 125.366 14.3837 125.366 17.7411Z" fill="white"></path>
<path d="M127.575 23.8348V9.32715H129.274V18.8815L134.907 13.265H137.061L132.608 17.7002L137.268 23.8348H135.176L131.427 18.8608L129.274 21.0162V23.8348H127.575Z" fill="white"></path>
<path d="M139.585 18.9225V19.0261C139.647 21.0365 140.91 22.4458 142.919 22.4458C144.41 22.4458 145.57 21.6582 145.922 20.2904H147.641C147.226 22.4043 145.487 23.9587 143.043 23.9587C139.874 23.9587 137.803 21.7826 137.803 18.5494C137.803 15.3163 139.833 13.1401 142.815 13.1401C145.797 13.1401 147.744 15.0261 147.827 18.1557C147.827 18.3215 147.806 18.6738 147.786 18.9225H139.585ZM139.688 17.4717H146.005C145.839 15.6479 144.596 14.6324 142.836 14.6324C141.283 14.6324 139.854 15.7515 139.688 17.4717Z" fill="white"></path>
<path d="M158.302 9.32715H160V23.8348H158.53L158.302 22.1354C157.598 23.1095 156.459 23.9592 154.678 23.9592C151.758 23.9592 149.604 21.9903 149.604 18.5499C149.604 15.3168 151.758 13.1406 154.678 13.1406C156.459 13.1406 157.66 13.866 158.302 14.8815V9.32715ZM158.323 18.5913C158.323 16.2701 156.914 14.6535 154.843 14.6535C152.772 14.6535 151.343 16.2494 151.343 18.5499C151.343 20.8504 152.752 22.4462 154.843 22.4462C156.935 22.4462 158.323 20.8504 158.323 18.5913Z" fill="white"></path>
<path d="M14.0979 28.2L0.000244141 14.1L14.0979 0L28.1956 14.1L22.779 19.5174L14.0979 10.8348L10.8333 14.1L19.5144 22.7826L14.0979 28.2ZM2.15215 14.1L14.0979 26.0477L17.3625 22.7826L8.68138 14.1L14.0979 8.68257L22.779 17.3651L26.0436 14.1L14.0979 2.15226L2.15215 14.1Z" fill="#FE552E"></path>
<path d="M14.0977 36.8816L0 22.7816L5.41652 17.3642L14.0977 26.0468L17.3623 22.7816L8.68114 14.0991L14.0977 8.68164L28.1953 22.7816L14.0977 36.8816ZM2.15191 22.7816L14.0977 34.7294L26.0434 22.7816L14.0977 10.8339L10.833 14.0991L19.5142 22.7816L14.0977 28.199L5.41652 19.5165L2.15191 22.7816Z" fill="#FE552E"></path>
</svg>